<svg width="30" height="30" viewBox="0 0 30 30" fill="none" xmlns="http://www.w3.org/2000/svg">
<path fill-rule="evenodd" clip-rule="evenodd" d="M15.0001 0.599976C15.4775 0.599976 15.9353 0.789616 16.2729 1.12719C16.6104 1.46475 16.8001 1.92259 16.8001 2.39998V4.19998C16.8001 4.67737 16.6104 5.1352 16.2729 5.47277C15.9353 5.81034 15.4775 5.99998 15.0001 5.99998C14.5227 5.99998 14.0648 5.81034 13.7273 5.47277C13.3897 5.1352 13.2001 4.67737 13.2001 4.19998V2.39998C13.2001 1.92259 13.3897 1.46475 13.7273 1.12719C14.0648 0.789616 14.5227 0.599976 15.0001 0.599976ZM22.2001 15C22.2001 16.9096 21.4415 18.7409 20.0912 20.0912C18.741 21.4414 16.9096 22.2 15.0001 22.2C13.0905 22.2 11.2592 21.4414 9.90892 20.0912C8.55862 18.7409 7.80012 16.9096 7.80012 15C7.80012 13.0904 8.55862 11.2591 9.90892 9.90878C11.2592 8.55858 13.0905 7.79998 15.0001 7.79998C16.9096 7.79998 18.741 8.55858 20.0912 9.90878C21.4415 11.2591 22.2001 13.0904 22.2001 15ZM21.3649 23.91L22.6375 25.1826C22.977 25.5105 23.4316 25.6919 23.9036 25.6878C24.3755 25.6837 24.827 25.4944 25.1607 25.1607C25.4945 24.8269 25.6838 24.3755 25.6879 23.9035C25.692 23.4316 25.5106 22.9769 25.1827 22.6374L23.9101 21.3648C23.5706 21.0369 23.1159 20.8555 22.644 20.8596C22.172 20.8637 21.7205 21.053 21.3868 21.3867C21.0531 21.7205 20.8638 22.1719 20.8597 22.6439C20.8556 23.1158 21.037 23.5705 21.3649 23.91ZM25.1809 4.81738C25.5183 5.15493 25.7079 5.61268 25.7079 6.08998C25.7079 6.56727 25.5183 7.02498 25.1809 7.36258L23.9101 8.63518C23.744 8.80708 23.5454 8.94418 23.3258 9.03858C23.1062 9.13288 22.87 9.18258 22.631 9.18458C22.392 9.18668 22.155 9.14118 21.9338 9.05068C21.7125 8.96018 21.5116 8.82648 21.3426 8.65748C21.1736 8.48848 21.0399 8.28748 20.9494 8.06628C20.8589 7.84508 20.8133 7.60808 20.8154 7.36908C20.8175 7.13008 20.8672 6.89386 20.9615 6.67425C21.0558 6.45464 21.193 6.25602 21.3649 6.08998L22.6375 4.81738C22.975 4.47993 23.4328 4.29036 23.9101 4.29036C24.3874 4.29036 24.8451 4.47993 25.1827 4.81738H25.1809ZM27.6001 16.8C28.0775 16.8 28.5353 16.6104 28.8729 16.2728C29.2104 15.9352 29.4001 15.4774 29.4001 15C29.4001 14.5226 29.2104 14.0648 28.8729 13.7272C28.5353 13.3896 28.0775 13.2 27.6001 13.2H25.8001C25.3227 13.2 24.8648 13.3896 24.5273 13.7272C24.1897 14.0648 24.0001 14.5226 24.0001 15C24.0001 15.4774 24.1897 15.9352 24.5273 16.2728C24.8648 16.6104 25.3227 16.8 25.8001 16.8H27.6001ZM15.0001 24C15.4775 24 15.9353 24.1896 16.2729 24.5272C16.6104 24.8648 16.8001 25.3226 16.8001 25.8V27.6C16.8001 28.0774 16.6104 28.5352 16.2729 28.8728C15.9353 29.2104 15.4775 29.4 15.0001 29.4C14.5227 29.4 14.0648 29.2104 13.7273 28.8728C13.3897 28.5352 13.2001 28.0774 13.2001 27.6V25.8C13.2001 25.3226 13.3897 24.8648 13.7273 24.5272C14.0648 24.1896 14.5227 24 15.0001 24ZM6.0901 8.63518C6.25722 8.80238 6.45564 8.93507 6.67404 9.02567C6.89244 9.11617 7.12652 9.16288 7.36292 9.16298C7.59942 9.16298 7.83352 9.11658 8.05202 9.02618C8.27042 8.93578 8.46892 8.80318 8.63622 8.63608C8.80342 8.46898 8.93612 8.27058 9.02672 8.05218C9.11722 7.83378 9.16392 7.59968 9.16392 7.36318C9.16402 7.12678 9.11752 6.89266 9.02712 6.6742C8.93672 6.45573 8.80422 6.25722 8.63712 6.08998L7.36272 4.81738C7.02322 4.48949 6.56853 4.30806 6.09657 4.31217C5.62462 4.31627 5.17316 4.50557 4.83942 4.8393C4.50569 5.17304 4.31638 5.6245 4.31228 6.09646C4.30818 6.56841 4.48961 7.02308 4.81749 7.36258L6.0901 8.63518ZM8.63532 23.91L7.36272 25.1826C7.02322 25.5105 6.56853 25.6919 6.09657 25.6878C5.62462 25.6837 5.17316 25.4944 4.83942 25.1607C4.50569 24.8269 4.31638 24.3755 4.31228 23.9035C4.30818 23.4316 4.48961 22.9769 4.81749 22.6374L6.0901 21.3648C6.42958 21.0369 6.88426 20.8555 7.35622 20.8596C7.82822 20.8637 8.27962 21.053 8.61332 21.3867C8.94712 21.7205 9.13642 22.1719 9.14052 22.6439C9.14462 23.1158 8.96322 23.5705 8.63532 23.91ZM4.2001 16.8C4.67748 16.8 5.13532 16.6104 5.47289 16.2728C5.81045 15.9352 6.00009 15.4774 6.00009 15C6.00009 14.5226 5.81045 14.0648 5.47289 13.7272C5.13532 13.3896 4.67748 13.2 4.2001 13.2H2.4001C1.92271 13.2 1.46487 13.3896 1.1273 13.7272C0.789738 14.0648 0.600098 14.5226 0.600098 15C0.600098 15.4774 0.789738 15.9352 1.1273 16.2728C1.46487 16.6104 1.92271 16.8 2.4001 16.8H4.2001Z" fill="#F1FAEE"/>
</svg>
